<?xml version="1.0" encoding="UTF-8" standalone="no"?><svg xmlns="http://www.w3.org/2000/svg" xmlns:xlink="http://www.w3.org/1999/xlink" contentScriptType="application/ecmascript" contentStyleType="text/css" height="252px" preserveAspectRatio="none" style="width:920px;height:252px;" version="1.1" viewBox="0 0 920 252" width="920px" zoomAndPan="magnify"><defs><filter height="300%" id="f17cw3tem0cgtg" width="300%" x="-1" y="-1"><feGaussianBlur result="blurOut" stdDeviation="2.0"/><feColorMatrix in="blurOut" result="blurOut2" type="matrix" values="0 0 0 0 0 0 0 0 0 0 0 0 0 0 0 0 0 0 .4 0"/><feOffset dx="4.0" dy="4.0" in="blurOut2" result="blurOut3"/><feBlend in="SourceGraphic" in2="blurOut3" mode="normal"/></filter></defs><g><!--MD5=[5cebc918a8b8f2d1be5940e92c560bfd]
class Contractor--><rect fill="#FEFECE" filter="url(#f17cw3tem0cgtg)" height="60.8047" id="Contractor" style="stroke: #A80036; stroke-width: 1.5;" width="101" x="169.5" y="174.5"/><ellipse cx="185.4" cy="190.5" fill="#ADD1B2" rx="11" ry="11" style="stroke: #A80036; stroke-width: 1.0;"/><path d="M188.3688,196.1406 Q187.7906,196.4375 187.15,196.5781 Q186.5094,196.7344 185.8063,196.7344 Q183.3063,196.7344 181.9781,195.0938 Q180.6656,193.4375 180.6656,190.3125 Q180.6656,187.1875 181.9781,185.5313 Q183.3063,183.875 185.8063,183.875 Q186.5094,183.875 187.15,184.0313 Q187.8063,184.1875 188.3688,184.4844 L188.3688,187.2031 Q187.7438,186.625 187.15,186.3594 Q186.5563,186.0781 185.9313,186.0781 Q184.5875,186.0781 183.9,187.1563 Q183.2125,188.2188 183.2125,190.3125 Q183.2125,192.4063 183.9,193.4844 Q184.5875,194.5469 185.9313,194.5469 Q186.5563,194.5469 187.15,194.2813 Q187.7438,194 188.3688,193.4219 L188.3688,196.1406 Z "/><text fill="#000000" font-family="sans-serif" font-size="12" lengthAdjust="spacingAndGlyphs" textLength="67" x="199.6" y="194.6543">Contractor</text><line style="stroke: #A80036; stroke-width: 1.5;" x1="170.5" x2="269.5" y1="206.5" y2="206.5"/><text fill="#000000" font-family="sans-serif" font-size="11" lengthAdjust="spacingAndGlyphs" textLength="89" x="175.5" y="220.7104">Location: String</text><line style="stroke: #A80036; stroke-width: 1.5;" x1="170.5" x2="269.5" y1="227.3047" y2="227.3047"/><!--MD5=[44a1b4afaef76c16e6c9ec4990ad0c8d]
class Item--><rect fill="#FEFECE" filter="url(#f17cw3tem0cgtg)" height="60.8047" id="Item" style="stroke: #A80036; stroke-width: 1.5;" width="88" x="821" y="60.5"/><ellipse cx="849.05" cy="76.5" fill="#ADD1B2" rx="11" ry="11" style="stroke: #A80036; stroke-width: 1.0;"/><path d="M852.0188,82.1406 Q851.4406,82.4375 850.8,82.5781 Q850.1594,82.7344 849.4563,82.7344 Q846.9563,82.7344 845.6281,81.0938 Q844.3156,79.4375 844.3156,76.3125 Q844.3156,73.1875 845.6281,71.5313 Q846.9563,69.875 849.4563,69.875 Q850.1594,69.875 850.8,70.0313 Q851.4563,70.1875 852.0188,70.4844 L852.0188,73.2031 Q851.3938,72.625 850.8,72.3594 Q850.2063,72.0781 849.5813,72.0781 Q848.2375,72.0781 847.55,73.1563 Q846.8625,74.2188 846.8625,76.3125 Q846.8625,78.4063 847.55,79.4844 Q848.2375,80.5469 849.5813,80.5469 Q850.2063,80.5469 850.8,80.2813 Q851.3938,80 852.0188,79.4219 L852.0188,82.1406 Z "/><text fill="#000000" font-family="sans-serif" font-size="12" lengthAdjust="spacingAndGlyphs" textLength="27" x="865.95" y="80.6543">Item</text><line style="stroke: #A80036; stroke-width: 1.5;" x1="822" x2="908" y1="92.5" y2="92.5"/><text fill="#000000" font-family="sans-serif" font-size="11" lengthAdjust="spacingAndGlyphs" textLength="76" x="827" y="106.7104">PartID: String</text><line style="stroke: #A80036; stroke-width: 1.5;" x1="822" x2="908" y1="113.3047" y2="113.3047"/><!--MD5=[7862ce2ac4106be8564bbaf1c2a32004]
class ItemManufactured--><rect fill="#FEFECE" filter="url(#f17cw3tem0cgtg)" height="60.8047" id="ItemManufactured" style="stroke: #A80036; stroke-width: 1.5;" width="146" x="505" y="117.5"/><ellipse cx="520" cy="133.5" fill="#ADD1B2" rx="11" ry="11" style="stroke: #A80036; stroke-width: 1.0;"/><path d="M522.9688,139.1406 Q522.3906,139.4375 521.75,139.5781 Q521.1094,139.7344 520.4063,139.7344 Q517.9063,139.7344 516.5781,138.0938 Q515.2656,136.4375 515.2656,133.3125 Q515.2656,130.1875 516.5781,128.5313 Q517.9063,126.875 520.4063,126.875 Q521.1094,126.875 521.75,127.0313 Q522.4063,127.1875 522.9688,127.4844 L522.9688,130.2031 Q522.3438,129.625 521.75,129.3594 Q521.1563,129.0781 520.5313,129.0781 Q519.1875,129.0781 518.5,130.1563 Q517.8125,131.2188 517.8125,133.3125 Q517.8125,135.4063 518.5,136.4844 Q519.1875,137.5469 520.5313,137.5469 Q521.1563,137.5469 521.75,137.2813 Q522.3438,137 522.9688,136.4219 L522.9688,139.1406 Z "/><text fill="#000000" font-family="sans-serif" font-size="12" lengthAdjust="spacingAndGlyphs" textLength="114" x="534" y="137.6543">ItemManufactured</text><line style="stroke: #A80036; stroke-width: 1.5;" x1="506" x2="650" y1="149.5" y2="149.5"/><text fill="#000000" font-family="sans-serif" font-size="11" lengthAdjust="spacingAndGlyphs" textLength="84" x="511" y="163.7104">BatchId: String</text><line style="stroke: #A80036; stroke-width: 1.5;" x1="506" x2="650" y1="170.3047" y2="170.3047"/><!--MD5=[9d44916250b776386006c440668bcfbb]
class Agent--><rect fill="#FEFECE" filter="url(#f17cw3tem0cgtg)" height="73.6094" id="Agent" style="stroke: #A80036; stroke-width: 1.5;" width="86" x="6" y="168"/><ellipse cx="28.65" cy="184" fill="#ADD1B2" rx="11" ry="11" style="stroke: #A80036; stroke-width: 1.0;"/><path d="M31.6188,189.6406 Q31.0406,189.9375 30.4,190.0781 Q29.7594,190.2344 29.0563,190.2344 Q26.5563,190.2344 25.2281,188.5938 Q23.9156,186.9375 23.9156,183.8125 Q23.9156,180.6875 25.2281,179.0313 Q26.5563,177.375 29.0563,177.375 Q29.7594,177.375 30.4,177.5313 Q31.0563,177.6875 31.6188,177.9844 L31.6188,180.7031 Q30.9938,180.125 30.4,179.8594 Q29.8063,179.5781 29.1813,179.5781 Q27.8375,179.5781 27.15,180.6563 Q26.4625,181.7188 26.4625,183.8125 Q26.4625,185.9063 27.15,186.9844 Q27.8375,188.0469 29.1813,188.0469 Q29.8063,188.0469 30.4,187.7813 Q30.9938,187.5 31.6188,186.9219 L31.6188,189.6406 Z "/><text fill="#000000" font-family="sans-serif" font-size="12" lengthAdjust="spacingAndGlyphs" textLength="37" x="44.35" y="188.1543">Agent</text><line style="stroke: #A80036; stroke-width: 1.5;" x1="7" x2="91" y1="200" y2="200"/><text fill="#000000" font-family="sans-serif" font-size="11" lengthAdjust="spacingAndGlyphs" textLength="52" x="12" y="214.2104">id: String</text><text fill="#000000" font-family="sans-serif" font-size="11" lengthAdjust="spacingAndGlyphs" textLength="74" x="12" y="227.0151">externalId: String</text><line style="stroke: #A80036; stroke-width: 1.5;" x1="7" x2="91" y1="233.6094" y2="233.6094"/><!--MD5=[be996cdb8e6bf2fc7cb89c555f2cd144]
class Entity--><rect fill="#FEFECE" filter="url(#f17cw3tem0cgtg)" height="73.6094" id="Entity" style="stroke: #A80036; stroke-width: 1.5;" width="86" x="535" y="8"/><ellipse cx="558.55" cy="24" fill="#ADD1B2" rx="11" ry="11" style="stroke: #A80036; stroke-width: 1.0;"/><path d="M561.5188,29.6406 Q560.9406,29.9375 560.3,30.0781 Q559.6594,30.2344 558.9563,30.2344 Q556.4563,30.2344 555.1281,28.5938 Q553.8156,26.9375 553.8156,23.8125 Q553.8156,20.6875 555.1281,19.0313 Q556.4563,17.375 558.9563,17.375 Q559.6594,17.375 560.3,17.5313 Q560.9563,17.6875 561.5188,17.9844 L561.5188,20.7031 Q560.8938,20.125 560.3,19.8594 Q559.7063,19.5781 559.0813,19.5781 Q557.7375,19.5781 557.05,20.6563 Q556.3625,21.7188 556.3625,23.8125 Q556.3625,25.9063 557.05,26.9844 Q557.7375,28.0469 559.0813,28.0469 Q559.7063,28.0469 560.3,27.7813 Q560.8938,27.5 561.5188,26.9219 L561.5188,29.6406 Z "/><text fill="#000000" font-family="sans-serif" font-size="12" lengthAdjust="spacingAndGlyphs" textLength="35" x="574.45" y="28.1543">Entity</text><line style="stroke: #A80036; stroke-width: 1.5;" x1="536" x2="620" y1="40" y2="40"/><text fill="#000000" font-family="sans-serif" font-size="11" lengthAdjust="spacingAndGlyphs" textLength="52" x="541" y="54.2104">id: String</text><text fill="#000000" font-family="sans-serif" font-size="11" lengthAdjust="spacingAndGlyphs" textLength="74" x="541" y="67.0151">externalId: String</text><line style="stroke: #A80036; stroke-width: 1.5;" x1="536" x2="620" y1="73.6094" y2="73.6094"/><!--MD5=[c881b25adf3665c6568c9693d41a70f3]
class Activity--><rect fill="#FEFECE" filter="url(#f17cw3tem0cgtg)" height="99.2188" id="Activity" style="stroke: #A80036; stroke-width: 1.5;" width="134" x="153" y="40.5"/><ellipse cx="194.55" cy="56.5" fill="#ADD1B2" rx="11" ry="11" style="stroke: #A80036; stroke-width: 1.0;"/><path d="M197.5188,62.1406 Q196.9406,62.4375 196.3,62.5781 Q195.6594,62.7344 194.9563,62.7344 Q192.4563,62.7344 191.1281,61.0938 Q189.8156,59.4375 189.8156,56.3125 Q189.8156,53.1875 191.1281,51.5313 Q192.4563,49.875 194.9563,49.875 Q195.6594,49.875 196.3,50.0313 Q196.9563,50.1875 197.5188,50.4844 L197.5188,53.2031 Q196.8938,52.625 196.3,52.3594 Q195.7063,52.0781 195.0813,52.0781 Q193.7375,52.0781 193.05,53.1563 Q192.3625,54.2188 192.3625,56.3125 Q192.3625,58.4063 193.05,59.4844 Q193.7375,60.5469 195.0813,60.5469 Q195.7063,60.5469 196.3,60.2813 Q196.8938,60 197.5188,59.4219 L197.5188,62.1406 Z "/><text fill="#000000" font-family="sans-serif" font-size="12" lengthAdjust="spacingAndGlyphs" textLength="43" x="214.45" y="60.6543">Activity</text><line style="stroke: #A80036; stroke-width: 1.5;" x1="154" x2="286" y1="72.5" y2="72.5"/><text fill="#000000" font-family="sans-serif" font-size="11" lengthAdjust="spacingAndGlyphs" textLength="52" x="159" y="86.7104">id: String</text><text fill="#000000" font-family="sans-serif" font-size="11" lengthAdjust="spacingAndGlyphs" textLength="74" x="159" y="99.5151">externalId: String</text><text fill="#000000" font-family="sans-serif" font-size="11" lengthAdjust="spacingAndGlyphs" textLength="122" x="159" y="112.3198">startedAtTime: String</text><text fill="#000000" font-family="sans-serif" font-size="11" lengthAdjust="spacingAndGlyphs" textLength="116" x="159" y="125.1245">endedAtTime: String</text><line style="stroke: #A80036; stroke-width: 1.5;" x1="154" x2="286" y1="131.7188" y2="131.7188"/><!--MD5=[5281885efa24924d2d16c5db98d0614d]
link Contractor to ItemManufactured--><path d="M270.88,200.04 C322.26,194.57 404.57,184.83 475,172 C483,170.54 491.32,168.86 499.6,167.08 " fill="none" id="Contractor-&gt;ItemManufactured" style="stroke: #A80036; stroke-width: 1.0;"/><polygon fill="#A80036" points="504.75,165.96,495.1076,163.9538,499.8631,167.0174,496.7995,171.7729,504.75,165.96" style="stroke: #A80036; stroke-width: 1.0;"/><text fill="#000000" font-family="sans-serif" font-size="13" lengthAdjust="spacingAndGlyphs" textLength="121" x="335.5" y="129.0669">wasAssociatedWith</text><path d="M322,138.1328 L322,163.1328 L466,163.1328 L466,148.1328 L456,138.1328 L322,138.1328 " fill="#FBFB77" filter="url(#f17cw3tem0cgtg)" style="stroke: #A80036; stroke-width: 1.0;"/><path d="M456,138.1328 L456,148.1328 L466,148.1328 L456,138.1328 " fill="#FBFB77" style="stroke: #A80036; stroke-width: 1.0;"/><text fill="#000000" font-family="sans-serif" font-size="13" lengthAdjust="spacingAndGlyphs" textLength="123" x="328" y="155.1997">Role=Manufacturer</text><!--MD5=[2e1e59fa11dc4f10518bc90e7b047297]
link Item to ItemManufactured--><path d="M836.08,121.67 C823.57,133.2 807.83,144.97 791,151 C748.21,166.33 697.38,166.17 656.21,161.9 " fill="none" id="Item-&gt;ItemManufactured" style="stroke: #A80036; stroke-width: 1.0;"/><polygon fill="#A80036" points="651.24,161.36,659.7526,166.3133,656.2105,161.9028,660.621,158.3606,651.24,161.36" style="stroke: #A80036; stroke-width: 1.0;"/><text fill="#000000" font-family="sans-serif" font-size="13" lengthAdjust="spacingAndGlyphs" textLength="108" x="682" y="147.0669">wasGeneratedBy</text><!--MD5=[085637ae57cfdea1a696211536625896]
link ItemManufactured to Item--><path d="M651.29,133.54 C702.73,123.25 770.46,109.71 815.53,100.69 " fill="none" id="ItemManufactured-&gt;Item" style="stroke: #A80036; stroke-width: 1.0;"/><polygon fill="#A80036" points="820.63,99.67,811.0179,97.5235,815.7282,100.6561,812.5956,105.3664,820.63,99.67" style="stroke: #A80036; stroke-width: 1.0;"/><text fill="#000000" font-family="sans-serif" font-size="13" lengthAdjust="spacingAndGlyphs" textLength="73" x="699.5" y="103.0669">generated*</text><!--MD5=[d69180f3d490a143ade5eaf3f77c6076]
link Agent to Contractor--><path d="M92.21,205 C109.37,205 129.66,205 148.93,205 " fill="none" id="Agent-&gt;Contractor" style="stroke: #A80036; stroke-width: 1.0;"/><polygon fill="none" points="149.23,198,169.23,205,149.23,212,149.23,198" style="stroke: #A80036; stroke-width: 1.0;"/><!--MD5=[d04a2445708364539c431ec7439d853e]
link Entity to Item--><path d="M621.25,46.72 C664.34,49.09 732.92,54.59 791,67 C794.36,67.72 797.79,68.54 801.23,69.42 " fill="none" id="Entity-&gt;Item" style="stroke: #A80036; stroke-width: 1.0;"/><polygon fill="none" points="803.55,62.81,820.8,75.11,799.64,76.25,803.55,62.81" style="stroke: #A80036; stroke-width: 1.0;"/><!--MD5=[c381c51692bde822cdf9e29304b819fa]
link Activity to ItemManufactured--><path d="M287.2,91.16 C338.86,93.17 412.16,98.42 475,112 C478.53,112.76 482.1,113.61 485.7,114.54 " fill="none" id="Activity-&gt;ItemManufactured" style="stroke: #A80036; stroke-width: 1.0;"/><polygon fill="none" points="487.63,107.81,504.94,120.04,483.78,121.27,487.63,107.81" style="stroke: #A80036; stroke-width: 1.0;"/><!--MD5=[bb5fbe88b3b06e327fefa9b3fda02494]
@startuml

left to right direction

class Contractor
Contractor : Location: String

class Item
Item : PartID: String

class ItemManufactured
ItemManufactured : BatchId: String

class Agent
Agent : id: String
Agent : externalId: String

class Entity
Entity : id: String
Entity : externalId: String

class Activity
Activity : id: String
Activity : externalId: String
Activity : startedAtTime: String
Activity : endedAtTime: String

Contractor - -> ItemManufactured : wasAssociatedWith
note on link: Role=Manufacturer

Item - -> ItemManufactured : wasGeneratedBy
ItemManufactured - -> Item : generated*

Agent - -|> Contractor
Entity - -|> Item
Activity - -|> ItemManufactured

@enduml

PlantUML version 1.2020.02(Sun Mar 01 10:22:07 GMT 2020)
(GPL source distribution)
Java Runtime: OpenJDK Runtime Environment
JVM: OpenJDK 64-Bit Server VM
Java Version: 11.0.17+8-post-Ubuntu-1ubuntu222.04
Operating System: Linux
Default Encoding: UTF-8
Language: en
Country: US
--></g></svg>
