<?xml version="1.0" encoding="UTF-8" standalone="no"?><svg xmlns="http://www.w3.org/2000/svg" xmlns:xlink="http://www.w3.org/1999/xlink" contentScriptType="application/ecmascript" contentStyleType="text/css" height="299px" preserveAspectRatio="none" style="width:858px;height:299px;" version="1.1" viewBox="0 0 858 299" width="858px" zoomAndPan="magnify"><defs><filter height="300%" id="f11erfu1gzr6vj" width="300%" x="-1" y="-1"><feGaussianBlur result="blurOut" stdDeviation="2.0"/><feColorMatrix in="blurOut" result="blurOut2" type="matrix" values="0 0 0 0 0 0 0 0 0 0 0 0 0 0 0 0 0 0 .4 0"/><feOffset dx="4.0" dy="4.0" in="blurOut2" result="blurOut3"/><feBlend in="SourceGraphic" in2="blurOut3" mode="normal"/></filter></defs><g><!--MD5=[5cebc918a8b8f2d1be5940e92c560bfd]
class Contractor--><rect fill="#FEFECE" filter="url(#f11erfu1gzr6vj)" height="60.8047" id="Contractor" style="stroke: #A80036; stroke-width: 1.5;" width="101" x="169.5" y="14.5"/><ellipse cx="185.4" cy="30.5" fill="#ADD1B2" rx="11" ry="11" style="stroke: #A80036; stroke-width: 1.0;"/><path d="M188.3688,36.1406 Q187.7906,36.4375 187.15,36.5781 Q186.5094,36.7344 185.8063,36.7344 Q183.3063,36.7344 181.9781,35.0938 Q180.6656,33.4375 180.6656,30.3125 Q180.6656,27.1875 181.9781,25.5313 Q183.3063,23.875 185.8063,23.875 Q186.5094,23.875 187.15,24.0313 Q187.8063,24.1875 188.3688,24.4844 L188.3688,27.2031 Q187.7438,26.625 187.15,26.3594 Q186.5563,26.0781 185.9313,26.0781 Q184.5875,26.0781 183.9,27.1563 Q183.2125,28.2188 183.2125,30.3125 Q183.2125,32.4063 183.9,33.4844 Q184.5875,34.5469 185.9313,34.5469 Q186.5563,34.5469 187.15,34.2813 Q187.7438,34 188.3688,33.4219 L188.3688,36.1406 Z "/><text fill="#000000" font-family="sans-serif" font-size="12" lengthAdjust="spacingAndGlyphs" textLength="67" x="199.6" y="34.6543">Contractor</text><line style="stroke: #A80036; stroke-width: 1.5;" x1="170.5" x2="269.5" y1="46.5" y2="46.5"/><text fill="#000000" font-family="sans-serif" font-size="11" lengthAdjust="spacingAndGlyphs" textLength="89" x="175.5" y="60.7104">Location: String</text><line style="stroke: #A80036; stroke-width: 1.5;" x1="170.5" x2="269.5" y1="67.3047" y2="67.3047"/><!--MD5=[44a1b4afaef76c16e6c9ec4990ad0c8d]
class Item--><rect fill="#FEFECE" filter="url(#f11erfu1gzr6vj)" height="60.8047" id="Item" style="stroke: #A80036; stroke-width: 1.5;" width="88" x="755" y="212.5"/><ellipse cx="783.05" cy="228.5" fill="#ADD1B2" rx="11" ry="11" style="stroke: #A80036; stroke-width: 1.0;"/><path d="M786.0188,234.1406 Q785.4406,234.4375 784.8,234.5781 Q784.1594,234.7344 783.4563,234.7344 Q780.9563,234.7344 779.6281,233.0938 Q778.3156,231.4375 778.3156,228.3125 Q778.3156,225.1875 779.6281,223.5313 Q780.9563,221.875 783.4563,221.875 Q784.1594,221.875 784.8,222.0313 Q785.4563,222.1875 786.0188,222.4844 L786.0188,225.2031 Q785.3938,224.625 784.8,224.3594 Q784.2063,224.0781 783.5813,224.0781 Q782.2375,224.0781 781.55,225.1563 Q780.8625,226.2188 780.8625,228.3125 Q780.8625,230.4063 781.55,231.4844 Q782.2375,232.5469 783.5813,232.5469 Q784.2063,232.5469 784.8,232.2813 Q785.3938,232 786.0188,231.4219 L786.0188,234.1406 Z "/><text fill="#000000" font-family="sans-serif" font-size="12" lengthAdjust="spacingAndGlyphs" textLength="27" x="799.95" y="232.6543">Item</text><line style="stroke: #A80036; stroke-width: 1.5;" x1="756" x2="842" y1="244.5" y2="244.5"/><text fill="#000000" font-family="sans-serif" font-size="11" lengthAdjust="spacingAndGlyphs" textLength="76" x="761" y="258.7104">PartID: String</text><line style="stroke: #A80036; stroke-width: 1.5;" x1="756" x2="842" y1="265.3047" y2="265.3047"/><!--MD5=[b7699d18aaae0c489e416159ee2e11a1]
class Certificate--><rect fill="#FEFECE" filter="url(#f11erfu1gzr6vj)" height="60.8047" id="Certificate" style="stroke: #A80036; stroke-width: 1.5;" width="96" x="751" y="86.5"/><ellipse cx="766" cy="102.5" fill="#ADD1B2" rx="11" ry="11" style="stroke: #A80036; stroke-width: 1.0;"/><path d="M768.9688,108.1406 Q768.3906,108.4375 767.75,108.5781 Q767.1094,108.7344 766.4063,108.7344 Q763.9063,108.7344 762.5781,107.0938 Q761.2656,105.4375 761.2656,102.3125 Q761.2656,99.1875 762.5781,97.5313 Q763.9063,95.875 766.4063,95.875 Q767.1094,95.875 767.75,96.0313 Q768.4063,96.1875 768.9688,96.4844 L768.9688,99.2031 Q768.3438,98.625 767.75,98.3594 Q767.1563,98.0781 766.5313,98.0781 Q765.1875,98.0781 764.5,99.1563 Q763.8125,100.2188 763.8125,102.3125 Q763.8125,104.4063 764.5,105.4844 Q765.1875,106.5469 766.5313,106.5469 Q767.1563,106.5469 767.75,106.2813 Q768.3438,106 768.9688,105.4219 L768.9688,108.1406 Z "/><text fill="#000000" font-family="sans-serif" font-size="12" lengthAdjust="spacingAndGlyphs" textLength="64" x="780" y="106.6543">Certificate</text><line style="stroke: #A80036; stroke-width: 1.5;" x1="752" x2="846" y1="118.5" y2="118.5"/><text fill="#000000" font-family="sans-serif" font-size="11" lengthAdjust="spacingAndGlyphs" textLength="77" x="757" y="132.7104">CertID: String</text><line style="stroke: #A80036; stroke-width: 1.5;" x1="752" x2="846" y1="139.3047" y2="139.3047"/><!--MD5=[a894296bb8d4f979bfdfdb7ccdbd74ff]
class ItemCertified--><rect fill="#FEFECE" filter="url(#f11erfu1gzr6vj)" height="48" id="ItemCertified" style="stroke: #A80036; stroke-width: 1.5;" width="111" x="470" y="93"/><ellipse cx="485" cy="109" fill="#ADD1B2" rx="11" ry="11" style="stroke: #A80036; stroke-width: 1.0;"/><path d="M487.9688,114.6406 Q487.3906,114.9375 486.75,115.0781 Q486.1094,115.2344 485.4063,115.2344 Q482.9063,115.2344 481.5781,113.5938 Q480.2656,111.9375 480.2656,108.8125 Q480.2656,105.6875 481.5781,104.0313 Q482.9063,102.375 485.4063,102.375 Q486.1094,102.375 486.75,102.5313 Q487.4063,102.6875 487.9688,102.9844 L487.9688,105.7031 Q487.3438,105.125 486.75,104.8594 Q486.1563,104.5781 485.5313,104.5781 Q484.1875,104.5781 483.5,105.6563 Q482.8125,106.7188 482.8125,108.8125 Q482.8125,110.9063 483.5,111.9844 Q484.1875,113.0469 485.5313,113.0469 Q486.1563,113.0469 486.75,112.7813 Q487.3438,112.5 487.9688,111.9219 L487.9688,114.6406 Z "/><text fill="#000000" font-family="sans-serif" font-size="12" lengthAdjust="spacingAndGlyphs" textLength="79" x="499" y="113.1543">ItemCertified</text><line style="stroke: #A80036; stroke-width: 1.5;" x1="471" x2="580" y1="125" y2="125"/><line style="stroke: #A80036; stroke-width: 1.5;" x1="471" x2="580" y1="133" y2="133"/><!--MD5=[9d44916250b776386006c440668bcfbb]
class Agent--><rect fill="#FEFECE" filter="url(#f11erfu1gzr6vj)" height="73.6094" id="Agent" style="stroke: #A80036; stroke-width: 1.5;" width="86" x="6" y="8"/><ellipse cx="28.65" cy="24" fill="#ADD1B2" rx="11" ry="11" style="stroke: #A80036; stroke-width: 1.0;"/><path d="M31.6188,29.6406 Q31.0406,29.9375 30.4,30.0781 Q29.7594,30.2344 29.0563,30.2344 Q26.5563,30.2344 25.2281,28.5938 Q23.9156,26.9375 23.9156,23.8125 Q23.9156,20.6875 25.2281,19.0313 Q26.5563,17.375 29.0563,17.375 Q29.7594,17.375 30.4,17.5313 Q31.0563,17.6875 31.6188,17.9844 L31.6188,20.7031 Q30.9938,20.125 30.4,19.8594 Q29.8063,19.5781 29.1813,19.5781 Q27.8375,19.5781 27.15,20.6563 Q26.4625,21.7188 26.4625,23.8125 Q26.4625,25.9063 27.15,26.9844 Q27.8375,28.0469 29.1813,28.0469 Q29.8063,28.0469 30.4,27.7813 Q30.9938,27.5 31.6188,26.9219 L31.6188,29.6406 Z "/><text fill="#000000" font-family="sans-serif" font-size="12" lengthAdjust="spacingAndGlyphs" textLength="37" x="44.35" y="28.1543">Agent</text><line style="stroke: #A80036; stroke-width: 1.5;" x1="7" x2="91" y1="40" y2="40"/><text fill="#000000" font-family="sans-serif" font-size="11" lengthAdjust="spacingAndGlyphs" textLength="52" x="12" y="54.2104">id: String</text><text fill="#000000" font-family="sans-serif" font-size="11" lengthAdjust="spacingAndGlyphs" textLength="74" x="12" y="67.0151">externalId: String</text><line style="stroke: #A80036; stroke-width: 1.5;" x1="7" x2="91" y1="73.6094" y2="73.6094"/><!--MD5=[be996cdb8e6bf2fc7cb89c555f2cd144]
class Entity--><rect fill="#FEFECE" filter="url(#f11erfu1gzr6vj)" height="73.6094" id="Entity" style="stroke: #A80036; stroke-width: 1.5;" width="86" x="482.5" y="215"/><ellipse cx="506.05" cy="231" fill="#ADD1B2" rx="11" ry="11" style="stroke: #A80036; stroke-width: 1.0;"/><path d="M509.0188,236.6406 Q508.4406,236.9375 507.8,237.0781 Q507.1594,237.2344 506.4563,237.2344 Q503.9563,237.2344 502.6281,235.5938 Q501.3156,233.9375 501.3156,230.8125 Q501.3156,227.6875 502.6281,226.0313 Q503.9563,224.375 506.4563,224.375 Q507.1594,224.375 507.8,224.5313 Q508.4563,224.6875 509.0188,224.9844 L509.0188,227.7031 Q508.3938,227.125 507.8,226.8594 Q507.2063,226.5781 506.5813,226.5781 Q505.2375,226.5781 504.55,227.6563 Q503.8625,228.7188 503.8625,230.8125 Q503.8625,232.9063 504.55,233.9844 Q505.2375,235.0469 506.5813,235.0469 Q507.2063,235.0469 507.8,234.7813 Q508.3938,234.5 509.0188,233.9219 L509.0188,236.6406 Z "/><text fill="#000000" font-family="sans-serif" font-size="12" lengthAdjust="spacingAndGlyphs" textLength="35" x="521.95" y="235.1543">Entity</text><line style="stroke: #A80036; stroke-width: 1.5;" x1="483.5" x2="567.5" y1="247" y2="247"/><text fill="#000000" font-family="sans-serif" font-size="11" lengthAdjust="spacingAndGlyphs" textLength="52" x="488.5" y="261.2104">id: String</text><text fill="#000000" font-family="sans-serif" font-size="11" lengthAdjust="spacingAndGlyphs" textLength="74" x="488.5" y="274.0151">externalId: String</text><line style="stroke: #A80036; stroke-width: 1.5;" x1="483.5" x2="567.5" y1="280.6094" y2="280.6094"/><!--MD5=[c881b25adf3665c6568c9693d41a70f3]
class Activity--><rect fill="#FEFECE" filter="url(#f11erfu1gzr6vj)" height="99.2188" id="Activity" style="stroke: #A80036; stroke-width: 1.5;" width="134" x="153" y="110.5"/><ellipse cx="194.55" cy="126.5" fill="#ADD1B2" rx="11" ry="11" style="stroke: #A80036; stroke-width: 1.0;"/><path d="M197.5188,132.1406 Q196.9406,132.4375 196.3,132.5781 Q195.6594,132.7344 194.9563,132.7344 Q192.4563,132.7344 191.1281,131.0938 Q189.8156,129.4375 189.8156,126.3125 Q189.8156,123.1875 191.1281,121.5313 Q192.4563,119.875 194.9563,119.875 Q195.6594,119.875 196.3,120.0313 Q196.9563,120.1875 197.5188,120.4844 L197.5188,123.2031 Q196.8938,122.625 196.3,122.3594 Q195.7063,122.0781 195.0813,122.0781 Q193.7375,122.0781 193.05,123.1563 Q192.3625,124.2188 192.3625,126.3125 Q192.3625,128.4063 193.05,129.4844 Q193.7375,130.5469 195.0813,130.5469 Q195.7063,130.5469 196.3,130.2813 Q196.8938,130 197.5188,129.4219 L197.5188,132.1406 Z "/><text fill="#000000" font-family="sans-serif" font-size="12" lengthAdjust="spacingAndGlyphs" textLength="43" x="214.45" y="130.6543">Activity</text><line style="stroke: #A80036; stroke-width: 1.5;" x1="154" x2="286" y1="142.5" y2="142.5"/><text fill="#000000" font-family="sans-serif" font-size="11" lengthAdjust="spacingAndGlyphs" textLength="52" x="159" y="156.7104">id: String</text><text fill="#000000" font-family="sans-serif" font-size="11" lengthAdjust="spacingAndGlyphs" textLength="74" x="159" y="169.5151">externalId: String</text><text fill="#000000" font-family="sans-serif" font-size="11" lengthAdjust="spacingAndGlyphs" textLength="122" x="159" y="182.3198">startedAtTime: String</text><text fill="#000000" font-family="sans-serif" font-size="11" lengthAdjust="spacingAndGlyphs" textLength="116" x="159" y="195.1245">endedAtTime: String</text><line style="stroke: #A80036; stroke-width: 1.5;" x1="154" x2="286" y1="201.7188" y2="201.7188"/><!--MD5=[9db1a4ef133999c4238ba5e51b6059b3]
link Contractor to ItemCertified--><path d="M270.78,56.81 C323.91,69.41 408.09,89.38 464.76,102.83 " fill="none" id="Contractor-&gt;ItemCertified" style="stroke: #A80036; stroke-width: 1.0;"/><polygon fill="#A80036" points="469.82,104.03,461.9881,98.0583,464.9554,102.8745,460.1392,105.8418,469.82,104.03" style="stroke: #A80036; stroke-width: 1.0;"/><text fill="#000000" font-family="sans-serif" font-size="13" lengthAdjust="spacingAndGlyphs" textLength="121" x="318" y="26.0669">wasAssociatedWith</text><path d="M322,35.1328 L322,60.1328 L431,60.1328 L431,45.1328 L421,35.1328 L322,35.1328 " fill="#FBFB77" filter="url(#f11erfu1gzr6vj)" style="stroke: #A80036; stroke-width: 1.0;"/><path d="M421,35.1328 L421,45.1328 L431,45.1328 L421,35.1328 " fill="#FBFB77" style="stroke: #A80036; stroke-width: 1.0;"/><text fill="#000000" font-family="sans-serif" font-size="13" lengthAdjust="spacingAndGlyphs" textLength="88" x="328" y="52.1997">Role=Certifier</text><!--MD5=[07a3b9af05f6f5c2ca4d6bf281726345]
link Certificate to ItemCertified--><path d="M750.77,119.13 C740.93,119.49 730.63,119.81 721,120 C672.12,120.95 659.88,120.87 611,120 C602.98,119.86 594.53,119.64 586.2,119.38 " fill="none" id="Certificate-&gt;ItemCertified" style="stroke: #A80036; stroke-width: 1.0;"/><polygon fill="#A80036" points="581.04,119.22,589.9099,123.5007,586.0375,119.3771,590.1612,115.5047,581.04,119.22" style="stroke: #A80036; stroke-width: 1.0;"/><text fill="#000000" font-family="sans-serif" font-size="13" lengthAdjust="spacingAndGlyphs" textLength="108" x="612" y="116.0669">wasGeneratedBy</text><!--MD5=[0fa0eed37309396aae4a74c91eb350d1]
link ItemCertified to Certificate--><path d="M581.23,103.6 C591.08,101.68 601.3,100.02 611,99 C659.62,93.88 672.43,93.4 721,99 C729.02,99.92 737.42,101.37 745.59,103.06 " fill="none" id="ItemCertified-&gt;Certificate" style="stroke: #A80036; stroke-width: 1.0;"/><polygon fill="#A80036" points="750.65,104.14,742.6798,98.3541,745.7595,103.0992,741.0145,106.1789,750.65,104.14" style="stroke: #A80036; stroke-width: 1.0;"/><text fill="#000000" font-family="sans-serif" font-size="13" lengthAdjust="spacingAndGlyphs" textLength="73" x="629.5" y="91.0669">generated*</text><!--MD5=[f0fc58c6bd91b34d3119c2f291fd05de]
link ItemCertified to Item--><path d="M578.53,141.14 C628.05,164.13 701.96,198.43 750.08,220.76 " fill="none" id="ItemCertified-&gt;Item" style="stroke: #A80036; stroke-width: 1.0;"/><polygon fill="#A80036" points="754.65,222.88,748.1679,215.465,750.114,220.7765,744.8024,222.7226,754.65,222.88" style="stroke: #A80036; stroke-width: 1.0;"/><text fill="#000000" font-family="sans-serif" font-size="13" lengthAdjust="spacingAndGlyphs" textLength="31" x="650.5" y="154.0669">used</text><!--MD5=[d69180f3d490a143ade5eaf3f77c6076]
link Agent to Contractor--><path d="M92.21,45 C109.37,45 129.66,45 148.93,45 " fill="none" id="Agent-&gt;Contractor" style="stroke: #A80036; stroke-width: 1.0;"/><polygon fill="none" points="149.23,38,169.23,45,149.23,52,149.23,38" style="stroke: #A80036; stroke-width: 1.0;"/><!--MD5=[d7226602d654d1cb4b8c8d88a5398cd4]
link Entity to Certificate--><path d="M568.5,250.79 C610,247.87 673.91,238.61 721,210 C739.71,198.63 755.97,181.06 768.67,164.23 " fill="none" id="Entity-&gt;Certificate" style="stroke: #A80036; stroke-width: 1.0;"/><polygon fill="none" points="763.13,159.94,780.35,147.59,774.59,167.99,763.13,159.94" style="stroke: #A80036; stroke-width: 1.0;"/><!--MD5=[d04a2445708364539c431ec7439d853e]
link Entity to Item--><path d="M568.65,252.98 C608.07,253.61 668.57,253.85 721,251 C725.47,250.76 730.08,250.44 734.72,250.08 " fill="none" id="Entity-&gt;Item" style="stroke: #A80036; stroke-width: 1.0;"/><polygon fill="none" points="734.34,243.08,754.89,248.23,735.61,257.02,734.34,243.08" style="stroke: #A80036; stroke-width: 1.0;"/><!--MD5=[390efd254dfb27640494f7448bb7b204]
link Activity to ItemCertified--><path d="M287.23,150.62 C335.1,143.83 399.84,134.66 449.6,127.61 " fill="none" id="Activity-&gt;ItemCertified" style="stroke: #A80036; stroke-width: 1.0;"/><polygon fill="none" points="448.79,120.66,469.57,124.78,450.75,134.52,448.79,120.66" style="stroke: #A80036; stroke-width: 1.0;"/><!--MD5=[177a10cfdb244b97e70ff71a8e7c7e36]
@startuml

left to right direction

class Contractor
Contractor : Location: String

class Item
Item : PartID: String

class Certificate
Certificate : CertID: String

class ItemCertified

class Agent
Agent : id: String
Agent : externalId: String

class Entity
Entity : id: String
Entity : externalId: String

class Activity
Activity : id: String
Activity : externalId: String
Activity : startedAtTime: String
Activity : endedAtTime: String

Contractor - -> ItemCertified : wasAssociatedWith
note on link: Role=Certifier

Certificate - -> ItemCertified : wasGeneratedBy
ItemCertified - -> Certificate : generated*

ItemCertified - -> Item : used

Agent - -|> Contractor
Entity - -|> Certificate
Entity - -|> Item
Activity - -|> ItemCertified

@enduml

PlantUML version 1.2020.02(Sun Mar 01 10:22:07 GMT 2020)
(GPL source distribution)
Java Runtime: OpenJDK Runtime Environment
JVM: OpenJDK 64-Bit Server VM
Java Version: 11.0.17+8-post-Ubuntu-1ubuntu222.04
Operating System: Linux
Default Encoding: UTF-8
Language: en
Country: US
--></g></svg>
